<?xml version="1.0" encoding="UTF-8" standalone="no"?>
<svg
   width="655"
   height="655"
   viewBox="0 0 655 655"
   version="1.1"
   xml:space="preserve"
   id="SVGRoot"
   inkscape:version="1.4.2 (f4327f4, 2025-05-13)"
   sodipodi:docname="icon_mono.svg"
   inkscape:export-filename="icon192.png"
   inkscape:export-xdpi="43.885715"
   inkscape:export-ydpi="43.885715"
   xmlns:inkscape="http://www.inkscape.org/namespaces/inkscape"
   xmlns:sodipodi="http://sodipodi.sourceforge.net/DTD/sodipodi-0.dtd"
   xmlns="http://www.w3.org/2000/svg"
   xmlns:svg="http://www.w3.org/2000/svg"><defs
   id="defs48" />
<sodipodi:namedview
   pagecolor="#a9a9a9"
   bordercolor="#292929"
   borderopacity="1"
   inkscape:showpageshadow="2"
   inkscape:pageopacity="0.0"
   inkscape:pagecheckerboard="0"
   inkscape:deskcolor="#232323"
   id="namedview1"
   inkscape:zoom="0.99782675"
   inkscape:cx="420.41366"
   inkscape:cy="263.07172"
   inkscape:window-width="1920"
   inkscape:window-height="1009"
   inkscape:window-x="-8"
   inkscape:window-y="1072"
   inkscape:window-maximized="1"
   inkscape:current-layer="SVGRoot"
   inkscape:export-bgcolor="#ffffff00" />
<style
   type="text/css"
   id="style1">
g.prefab path {
  vector-effect:non-scaling-stroke;
  -inkscape-stroke:hairline;
  fill: none;
  fill-opacity: 1;
  stroke-opacity: 1;
  stroke: #00349c;
}
</style>
<path
   id="path51"
   style="fill:#000000;fill-opacity:1;stroke:none;stroke-width:5.13283;stroke-linecap:round;stroke-linejoin:round;stroke-dasharray:none;stroke-dashoffset:0;stroke-opacity:1"
   d="m 330.94614,329.641 c -0.0439,20.92454 -0.0877,41.84907 -0.13154,62.77361 18.19407,-10.4579 36.38816,-20.9158 54.58223,-31.3737 0.005,-20.92386 0.009,-41.84773 0.014,-62.7716 -18.15489,10.45723 -36.30976,20.91446 -54.46465,31.37169 z" /><path
   id="path51-4"
   style="fill:#000000;fill-opacity:1;stroke:none;stroke-width:5.13283;stroke-linecap:round;stroke-linejoin:round;stroke-dasharray:none;stroke-dashoffset:0;stroke-opacity:1"
   d="m 330.80463,397.16856 c -0.0439,20.92454 -0.0877,41.84908 -0.13155,62.77362 18.19475,-10.4579 36.38949,-20.91579 54.58424,-31.3737 0.0439,-20.92454 0.0877,-41.84908 0.13154,-62.77361 -18.19475,10.4579 -36.38948,20.9158 -54.58423,31.37369 z" /><path
   id="path50"
   style="fill:#000000;fill-opacity:1;stroke:none;stroke-width:5.13283;stroke-linecap:round;stroke-linejoin:round;stroke-dasharray:none;stroke-dashoffset:0;stroke-opacity:1"
   d="m 271.55844,361.11554 c 18.3914,10.44243 36.7828,20.88487 55.1742,31.32731 0.0439,-20.93261 0.0877,-41.86521 0.13154,-62.79782 -18.43524,-10.5184 -36.8705,-21.03682 -55.30574,-31.55523 0,21.00858 0,42.01716 0,63.02574 z" /><path
   id="path50-5"
   style="fill:#000000;fill-opacity:1;stroke:none;stroke-width:5.13283;stroke-linecap:round;stroke-linejoin:round;stroke-dasharray:none;stroke-dashoffset:0;stroke-opacity:1"
   d="m 271.41892,428.64513 c 18.39074,10.44176 36.78147,20.88353 55.1722,31.32529 0.0439,-20.93194 0.0877,-41.86387 0.13155,-62.79581 -18.39073,-10.44176 -36.78147,-20.88352 -55.1722,-31.32528 -0.0439,20.93193 -0.0877,41.86386 -0.13155,62.7958 z" /><path
   id="path50-1"
   style="fill:#000000;fill-opacity:1;stroke:none;stroke-width:5.13283;stroke-linecap:round;stroke-linejoin:round;stroke-dasharray:none;stroke-dashoffset:0;stroke-opacity:1"
   d="m 271.27741,496.1727 c 18.39073,10.44244 36.78147,20.88486 55.1722,31.3273 0.0439,-20.9326 0.0877,-41.86521 0.13155,-62.79781 -18.39074,-10.44176 -36.78147,-20.88353 -55.1722,-31.3253 -0.0439,20.93194 -0.0877,41.86388 -0.13155,62.79581 z" /><path
   id="path51-2"
   style="fill:#000000;fill-opacity:1;stroke:none;stroke-width:5.13283;stroke-linecap:round;stroke-linejoin:round;stroke-dasharray:none;stroke-dashoffset:0;stroke-opacity:1"
   d="m 330.66312,464.69614 c -0.0439,20.92521 -0.0877,41.85042 -0.13155,62.77563 18.19474,-10.45857 36.38949,-20.91715 54.58423,-31.37571 0.0439,-20.92454 0.0877,-41.84908 0.13155,-62.77362 -18.19475,10.4579 -36.38948,20.91579 -54.58423,31.3737 z" /><path
   id="path49"
   style="fill:#000000;fill-opacity:1;stroke:none;stroke-width:5.13283;stroke-linecap:round;stroke-linejoin:round;stroke-dasharray:none;stroke-dashoffset:0;stroke-opacity:1"
   d="m 273.68114,294.56014 c 18.40668,10.5016 36.81336,21.0032 55.22004,31.5048 18.13628,-10.44714 36.27256,-20.89429 54.40883,-31.34142 -18.27513,-10.42698 -36.55026,-20.85395 -54.8254,-31.28093 -18.26782,10.37252 -36.53565,20.74503 -54.80347,31.11755 z" /><path
   id="path49-2"
   style="fill:#000000;fill-opacity:1;stroke:none;stroke-width:5.13283;stroke-linecap:round;stroke-linejoin:round;stroke-dasharray:none;stroke-dashoffset:0;stroke-opacity:1"
   d="m 214.2715,260.66525 c 18.41599,10.50631 36.83197,21.01262 55.24795,31.51892 18.27448,-10.37587 36.54894,-20.75175 54.82341,-31.12762 -18.41531,-10.63204 -36.83064,-21.26407 -55.24595,-31.89609 -18.27513,10.5016 -36.55028,21.0032 -54.82541,31.50479 z" /><path
   id="path49-2-8"
   style="fill:#000000;fill-opacity:1;stroke:none;stroke-width:5.13283;stroke-linecap:round;stroke-linejoin:round;stroke-dasharray:none;stroke-dashoffset:0;stroke-opacity:1"
   d="m 154.8838,226.77844 c 18.41399,10.5063 36.82798,21.0126 55.24197,31.51891 18.27646,-10.50227 36.55292,-21.00454 54.82939,-31.50682 -18.41333,-10.5063 -36.82665,-21.0126 -55.23998,-31.51891 -18.27713,10.50227 -36.55425,21.00454 -54.83138,31.50682 z" /><path
   id="path49-6"
   style="fill:#000000;fill-opacity:1;stroke:none;stroke-width:5.13283;stroke-linecap:round;stroke-linejoin:round;stroke-dasharray:none;stroke-dashoffset:0;stroke-opacity:1"
   d="m 332.62836,261.06663 c 18.27247,10.42495 36.54495,20.8499 54.81743,31.27487 18.14291,-10.45051 36.28584,-20.90102 54.42876,-31.35152 -18.14027,-10.47538 -36.28053,-20.95076 -54.42079,-31.42614 -18.27513,10.50093 -36.55027,21.00186 -54.8254,31.50279 z" /><path
   id="path49-2-1"
   style="fill:#000000;fill-opacity:1;stroke:none;stroke-width:5.13283;stroke-linecap:round;stroke-linejoin:round;stroke-dasharray:none;stroke-dashoffset:0;stroke-opacity:1"
   d="m 273.22271,226.78852 c 18.42196,10.63606 36.84393,21.27212 55.26589,31.90819 18.28111,-10.5043 36.56222,-21.00858 54.84334,-31.51287 -18.42197,-10.63607 -36.84393,-21.27212 -55.26588,-31.90818 -18.28113,10.50428 -36.56224,21.00857 -54.84335,31.51286 z" /><path
   id="path49-2-8-8"
   style="fill:#000000;fill-opacity:1;stroke:none;stroke-width:5.13283;stroke-linecap:round;stroke-linejoin:round;stroke-dasharray:none;stroke-dashoffset:0;stroke-opacity:1"
   d="m 213.85494,192.89364 c 18.41399,10.50629 36.82798,21.0126 55.24197,31.51891 18.27579,-10.50227 36.55159,-21.00454 54.82739,-31.50682 -18.41333,-10.5063 -36.82665,-21.01261 -55.23998,-31.51891 -18.27645,10.50227 -36.55292,21.00454 -54.82938,31.50682 z" /><path
   id="path49-6-7"
   style="fill:#000000;fill-opacity:1;stroke:none;stroke-width:5.13283;stroke-linecap:round;stroke-linejoin:round;stroke-dasharray:none;stroke-dashoffset:0;stroke-opacity:1"
   d="m 391.57758,227.19191 c 18.1396,10.47471 36.27919,20.94941 54.41879,31.42412 18.14691,-10.45386 36.29382,-20.90773 54.44072,-31.3616 -18.00738,-10.52445 -36.01477,-21.04891 -54.02216,-31.57337 -18.27912,10.50362 -36.55824,21.00723 -54.83735,31.51085 z" /><path
   id="path49-2-1-9"
   style="fill:#000000;fill-opacity:1;stroke:none;stroke-width:5.13283;stroke-linecap:round;stroke-linejoin:round;stroke-dasharray:none;stroke-dashoffset:0;stroke-opacity:1"
   d="m 332.19186,192.90371 c 18.42196,10.63607 36.84392,21.27213 55.26589,31.9082 18.28111,-10.50497 36.56222,-21.00992 54.84333,-31.51489 -18.4213,-10.63539 -36.84259,-21.27078 -55.26389,-31.90617 -18.28178,10.50429 -36.56355,21.00858 -54.84533,31.51286 z" /><path
   id="path49-2-8-8-5"
   style="fill:#000000;fill-opacity:1;stroke:none;stroke-width:5.13283;stroke-linecap:round;stroke-linejoin:round;stroke-dasharray:none;stroke-dashoffset:0;stroke-opacity:1"
   d="m 272.82408,159.00883 c 18.414,10.5063 36.82799,21.01261 55.24198,31.51892 18.27645,-10.50227 36.55292,-21.00454 54.82938,-31.50682 -18.41333,-10.50697 -36.82665,-21.01395 -55.23998,-31.52093 -18.27712,10.50294 -36.55425,21.00588 -54.83138,31.50883 z" /><path
   id="path54"
   style="fill:#000000;fill-opacity:1;stroke:none;stroke-width:5.13283;stroke-linecap:round;stroke-linejoin:round;stroke-dasharray:none;stroke-dashoffset:0;stroke-opacity:1"
   d="m 211.8877,462.28991 c 18.43791,10.51976 36.87582,21.03951 55.31373,31.55926 0.0439,-20.92992 0.0877,-41.85983 0.13155,-62.78975 -18.43791,-10.51976 -36.87582,-21.03951 -55.31373,-31.55925 -0.0439,20.92991 -0.0877,41.85982 -0.13155,62.78974 z" /><path
   id="path48"
   style="fill:#000000;fill-opacity:1;stroke:none;stroke-width:5.13283;stroke-linecap:round;stroke-linejoin:round;stroke-dasharray:none;stroke-dashoffset:0;stroke-opacity:1"
   d="m 212.02922,394.76234 c 18.4379,10.51975 36.87581,21.0395 55.31372,31.55926 0.0439,-20.92992 0.0877,-41.85983 0.13155,-62.78975 -18.43791,-10.51975 -36.87582,-21.0395 -55.31373,-31.55926 -0.0439,20.92992 -0.0877,41.85984 -0.13154,62.78975 z" /><path
   id="path1"
   style="fill:#000000;fill-opacity:1;stroke:none;stroke-width:5.13283;stroke-linecap:round;stroke-linejoin:round;stroke-dasharray:none;stroke-dashoffset:0;stroke-opacity:1"
   d="m 212.16873,327.23477 c 18.43592,10.51841 36.87183,21.03681 55.30775,31.55522 0,-21.00992 0,-42.01984 0,-63.02977 -18.43524,-10.5184 -36.8705,-21.03681 -55.30575,-31.55522 -6.6e-4,21.00993 -0.001,42.01985 -0.002,63.02977 z" /><path
   id="path62"
   style="fill:#000000;fill-opacity:1;stroke:none;stroke-width:5.13283;stroke-linecap:round;stroke-linejoin:round;stroke-dasharray:none;stroke-dashoffset:0;stroke-opacity:1"
   d="m 152.5,428.4031 c 18.43791,10.51975 36.87581,21.03949 55.31372,31.55925 0.0439,-20.92991 0.0877,-41.85983 0.13154,-62.78975 -18.4379,-10.51975 -36.87581,-21.03951 -55.31371,-31.55926 -0.0438,20.92992 -0.0877,41.85984 -0.13155,62.78976 z" /><path
   id="path59"
   style="fill:#000000;fill-opacity:1;stroke:none;stroke-width:5.13283;stroke-linecap:round;stroke-linejoin:round;stroke-dasharray:none;stroke-dashoffset:0;stroke-opacity:1"
   d="m 152.64151,360.87552 c 18.43791,10.51975 36.87582,21.03951 55.31373,31.55926 0.0439,-20.92992 0.0877,-41.85984 0.13154,-62.78975 -18.43791,-10.51976 -36.87581,-21.0395 -55.31372,-31.55925 -0.0438,20.92991 -0.0877,41.85982 -0.13155,62.78974 z" /><path
   id="path56"
   style="fill:#000000;fill-opacity:1;stroke:none;stroke-width:5.13283;stroke-linecap:round;stroke-linejoin:round;stroke-dasharray:none;stroke-dashoffset:0;stroke-opacity:1"
   d="m 152.78103,293.34796 c 18.43592,10.5184 36.87183,21.03681 55.30775,31.55522 0,-21.00925 0,-42.01851 0,-63.02776 -18.43526,-10.5184 -36.8705,-21.03681 -55.30575,-31.55522 -6.7e-4,21.00925 -0.001,42.01851 -0.002,63.02776 z" /><path
   id="path68"
   style="fill:#000000;fill-opacity:1;stroke:none;stroke-width:5.13283;stroke-linecap:round;stroke-linejoin:round;stroke-dasharray:none;stroke-dashoffset:0;stroke-opacity:1"
   d="m 389.4768,363.44512 c -0.0439,20.92252 -0.0877,41.84505 -0.13154,62.76756 18.15222,-10.45588 36.30444,-20.91176 54.45666,-31.36765 0.0439,-20.92251 0.0877,-41.84503 0.13154,-62.76756 -18.15222,10.45588 -36.30444,20.91177 -54.45666,31.36765 z" /><path
   id="path67"
   style="fill:#000000;fill-opacity:1;stroke:none;stroke-width:5.13283;stroke-linecap:round;stroke-linejoin:round;stroke-dasharray:none;stroke-dashoffset:0;stroke-opacity:1"
   d="m 389.33529,430.97269 c -0.0439,20.92252 -0.0877,41.84504 -0.13156,62.76757 18.15223,-10.45589 36.30445,-20.91177 54.45667,-31.36765 0.0439,-20.92252 0.0877,-41.84505 0.13155,-62.76756 -18.15222,10.45588 -36.30444,20.91176 -54.45666,31.36764 z" /><path
   id="path64"
   style="fill:#000000;fill-opacity:1;stroke:none;stroke-width:5.13283;stroke-linecap:round;stroke-linejoin:round;stroke-dasharray:none;stroke-dashoffset:0;stroke-opacity:1"
   d="m 389.49275,295.91755 c -0.005,20.92387 -0.009,41.84774 -0.014,62.77159 18.15422,-10.45722 36.30843,-20.91445 54.46265,-31.37167 0.005,-20.92387 0.009,-41.84773 0.014,-62.7716 -18.15422,10.45722 -36.30843,20.91446 -54.46264,31.37168 z" /><path
   id="path74"
   style="fill:#000000;fill-opacity:1;stroke:none;stroke-width:5.13283;stroke-linecap:round;stroke-linejoin:round;stroke-dasharray:none;stroke-dashoffset:0;stroke-opacity:1"
   d="m 448.0214,329.72167 c -0.0439,20.92253 -0.0877,41.84505 -0.13154,62.76756 18.15222,-10.45588 36.30445,-20.91176 54.45667,-31.36764 0.0439,-20.92252 0.0877,-41.84504 0.13154,-62.76756 -18.15222,10.45588 -36.30445,20.91176 -54.45667,31.36764 z" /><path
   id="path73"
   style="fill:#000000;fill-opacity:1;stroke:none;stroke-width:5.13283;stroke-linecap:round;stroke-linejoin:round;stroke-dasharray:none;stroke-dashoffset:0;stroke-opacity:1"
   d="m 447.87989,397.24925 c -0.0439,20.92251 -0.0877,41.84503 -0.13155,62.76756 18.15222,-10.45588 36.30444,-20.91176 54.45667,-31.36765 0.0439,-20.92252 0.0877,-41.84505 0.13155,-62.76756 -18.15222,10.45588 -36.30445,20.91176 -54.45667,31.36765 z" /><path
   id="path70"
   style="fill:#000000;fill-opacity:1;stroke:none;stroke-width:5.13283;stroke-linecap:round;stroke-linejoin:round;stroke-dasharray:none;stroke-dashoffset:0;stroke-opacity:1"
   d="m 448.03735,262.19411 c -0.005,20.92386 -0.009,41.84773 -0.014,62.77159 18.15421,-10.45723 36.30843,-20.91445 54.46265,-31.37168 0.005,-20.92386 0.009,-41.84773 0.014,-62.7716 -18.15422,10.45723 -36.30843,20.91446 -54.46265,31.37169 z" />
</svg>
